<?xml version="1.0" encoding="UTF-8" standalone="no"?><!DOCTYPE svg PUBLIC "-//W3C//DTD SVG 1.1//EN" "http://www.w3.org/Graphics/SVG/1.1/DTD/svg11.dtd"><svg width="100%" height="100%" viewBox="0 0 220 189" version="1.1" xmlns="http://www.w3.org/2000/svg" xmlns:xlink="http://www.w3.org/1999/xlink" xml:space="preserve" xmlns:serif="http://www.serif.com/" style="fill-rule:evenodd;clip-rule:evenodd;stroke-linejoin:round;stroke-miterlimit:1.41421;"><path id="Shape" d="M87.8,61.06l43.9,0l0,9.81l-43.9,0l0,-9.81Zm0,58.62l43.9,0l0,9.77l-43.9,0l0,-9.77Zm-14.63,-19.54l73.16,0l0,9.73l-73.16,0l0,-9.73Zm0,-19.54l73.16,0l0,9.77l-73.16,0l0,-9.77Zm-43.9,12.27l80.51,78.15l80.45,-78.16l-80.45,-78.2l-80.51,78.21Zm80.15,-92.87l88.13,84.87l12.77,-11.91l9.18,8.31l-109.75,106.8l-89.3,-86.69l-11.82,11.41l-8.63,-8.37l109.42,-104.42Z" style="fill:#fff;"/></svg>